{"title":"Midnight.Bayou.2009.DVDRiP.XviD.OPTIONAL-NORDIC_SUB-Zen_Bud","uid":5909412,"size":755265435,"categoryP":"video","categoryS":"movies","magnet":"?xt=urn:btih:ec170d3a1dcd92f45f94f23e71bbc784cf1fa7ba&amp;dn=+Midnight.Bayou.2009.DVDRiP.XviD.OPTIONAL-NORDIC_SUB-Zen_Bud&amp;tr=udp%3A%2F%2Ftracker.openbittorrent.com%3A80&amp;tr=udp%3A%2F%2Fopen.demonii.com%3A1337&amp;tr=udp%3A%2F%2Ftracker.coppersurfer.tk%3A6969&amp;tr=udp%3A%2F%2Fexodus.desync.com%3A6969","seeders":1,"leechers":0,"uploader":"Zen_Bud","files":-1,"time":1287995395,"description":"\n******** Midnight.Bayou.2009.DVDRiP.XviD.OPTIONAL-NORDIC_SUB-Zen_Bud *******\n\nFormat                           : AVI\nFile size                        : 705 MiB\nDuration                         : 1h 27mn\nOverall bit rate                 : 1 124 Kbps\n\nVideo\n\nFormat                           : MPEG-4 Visual\nCodec ID/Hint                    : XviD\nDuration                         : 1h 27mn\nBit rate                         : 983 Kbps\nWidth                            : 720 pixels\nHeight                           : 572 pixels\nDisplay aspect ratio             : 16:9\nStream size                      : 617 MiB (87%)\nWriting library                  : XviD 1.1.2 (UTC 2006-11-01)\n\nAudio\n\nFormat                           : MPEG Audio\nCodec ID/Hint                    : MP3\nDuration                         : 1h 27mn\nBit rate                         : 128 Kbps\nChannel(s)                       : 2 channels\nSampling rate                    : 48.0 KHz\nStream size                      : 80.3 MiB (11%)\nWriting library                  : LAME3.98\nLanguage                         : English\n\n\nText #1\nLanguage                         : Swedish\n\nText #2\nLanguage                         : Danish\n\nText #3\nLanguage                         : Norwegian\n\nText #4\nLanguage                         : Finnish\n\n\nGhost story by Nora Roberts about the deep south that covers some 120 years and at least four generations of the New Oleans Manet family.\n\n &lt;a href=&quot;\nhttp://en.wikipedia.org/wiki/Midnight_Bayou&quot; rel=&quot;nofollow&quot; target=&quot;_NEW&quot;&gt;\nhttp://en.wikipedia.org/wiki/Midnight_Bayou&lt;/a&gt;\n","torrent":{"xt":"urn:btih:ec170d3a1dcd92f45f94f23e71bbc784cf1fa7ba","amp;dn":"+Midnight.Bayou.2009.DVDRiP.XviD.OPTIONAL-NORDIC_SUB-Zen_Bud","amp;tr":["udp%3A%2F%2Ftracker.openbittorrent.com%3A80","udp%3A%2F%2Fopen.demonii.com%3A1337","udp%3A%2F%2Ftracker.coppersurfer.tk%3A6969","udp%3A%2F%2Fexodus.desync.com%3A6969"],"infoHash":"ec170d3a1dcd92f45f94f23e71bbc784cf1fa7ba","infoHashBuffer":{"type":"Buffer","data":[236,23,13,58,29,205,146,244,95,148,242,62,113,187,199,132,207,31,167,186]},"announce":[],"urlList":[]}}